<svg width="128" height="128" viewBox="0 0 128 128" fill="none" xmlns="http://www.w3.org/2000/svg">
<path d="M63.2655 28.5539C64.0663 29.0173 65.1 28.8007 65.6046 28.0252L67.5351 25.0585C68.1546 24.1066 67.8904 22.8294 66.9074 22.2606C65.9244 21.6917 64.6798 22.0962 64.1634 23.1077L62.5539 26.2601C62.1332 27.0842 62.4647 28.0905 63.2655 28.5539Z" fill="#FFD400"/>
<path d="M47.2644 24.2712C48.1897 24.2712 48.9778 23.5651 49.0255 22.6409L49.2081 19.1002C49.2664 17.9694 48.3967 17 47.2644 17C46.1321 17 45.2623 17.9694 45.3207 19.1002L45.5033 22.6409C45.5509 23.5651 46.339 24.2712 47.2644 24.2712Z" fill="#FFD400"/>
<path d="M31.2632 28.5539C32.064 28.0905 32.3955 27.0842 31.9748 26.2602L30.3654 23.1077C29.8489 22.0962 28.6043 21.6917 27.6213 22.2606C26.6383 22.8294 26.3741 24.1066 26.9936 25.0585L28.9241 28.0252C29.4287 28.8007 30.4624 29.0173 31.2632 28.5539Z" fill="#FFD400"/>
<path d="M19.5539 40.2632C20.0173 39.4624 19.8007 38.4287 19.0252 37.9241L16.0585 35.9936C15.1066 35.3741 13.8294 35.6383 13.2606 36.6213C12.6917 37.6043 13.0962 38.8489 14.1077 39.3654L17.2601 40.9748C18.0842 41.3955 19.0905 41.064 19.5539 40.2632Z" fill="#FFD400"/>
<path d="M13.6409 54.5033C14.5651 54.5509 15.2712 55.339 15.2712 56.2644C15.2712 57.1897 14.5651 57.9778 13.6409 58.0255L10.1002 58.2081C8.96943 58.2664 8 57.3967 8 56.2644C8 55.1321 8.96942 54.2623 10.1002 54.3207L13.6409 54.5033Z" fill="#FFD400"/>
<path d="M65.4965 36.4809C60.7028 32.0609 54.2989 29.361 47.2644 29.361C32.4061 29.361 20.361 41.4061 20.361 56.2644C20.361 57.3502 20.4253 58.421 20.5504 59.4731C24.8985 56.6299 30.0953 54.977 35.6782 54.977C37.9422 54.977 40.146 55.2495 42.257 55.7644C46.9301 46.4848 55.3308 39.3996 65.4965 36.4809Z" fill="#FFD400"/>
<path d="M35.678 107.115C22.1693 107.115 11.2183 96.164 11.2183 82.6553C11.2183 69.1465 22.1693 58.1955 35.678 58.1955C38.6071 58.1955 41.416 58.7103 44.0191 59.6545C49.1548 47.0924 61.4978 38.2415 75.9079 38.2415C94.9268 38.2415 110.345 53.6593 110.345 72.6782C110.345 73.5161 110.315 74.3469 110.256 75.1698C116.007 77.818 120 83.6324 120 90.3794C120 99.6222 112.507 107.115 103.264 107.115H35.678Z" fill="white"/>
</svg>
