<svg width="40" height="40" viewBox="0 0 40 40" fill="none" xmlns="http://www.w3.org/2000/svg">
<circle cx="26.4617" cy="17.4695" r="5.46947" fill="url(#paint0_linear_2829_77420)"/>
<path fill-rule="evenodd" clip-rule="evenodd" d="M11.8381 19.6231C11.8381 19.6207 11.8381 19.6184 11.8381 19.616C11.8381 16.4349 14.417 13.856 17.5981 13.856C19.4605 13.856 21.1164 14.7398 22.1693 16.1109C22.6832 15.8952 23.2477 15.776 23.84 15.776C26.0655 15.776 27.898 17.4589 28.1342 19.6215C30.288 19.733 32 21.5146 32 23.696C32 25.9493 30.1733 27.776 27.92 27.776H12.08C9.82668 27.776 8 25.9493 8 23.696C8 21.5239 9.6974 19.7482 11.8381 19.6231Z" fill="url(#paint1_linear_2829_77420)"/>
<defs>
<linearGradient id="paint0_linear_2829_77420" x1="18.858" y1="13.2195" x2="29.2241" y2="21.5531" gradientUnits="userSpaceOnUse">
<stop stop-color="#FFEA9F"/>
<stop offset="1" stop-color="#FFB547"/>
</linearGradient>
<linearGradient id="paint1_linear_2829_77420" x1="8" y1="20.8159" x2="32" y2="20.8159" gradientUnits="userSpaceOnUse">
<stop stop-color="#22F779"/>
<stop offset="1" stop-color="#75FFA5"/>
</linearGradient>
</defs>
</svg>
