<svg width="40" height="40" viewBox="0 0 40 40" fill="none" xmlns="http://www.w3.org/2000/svg">
<path opacity="0.9" fill-rule="evenodd" clip-rule="evenodd" d="M29.9338 14.0367H30.3419C31.8094 14.0367 32.9991 15.2263 32.9991 16.6939C32.9991 18.1614 31.8094 19.3511 30.3419 19.3511H22.0635C20.5959 19.3511 19.4062 18.1614 19.4062 16.6939C19.4062 15.2263 20.5959 14.0367 22.0635 14.0367H22.8487C23.1203 12.3156 24.603 11 26.3913 11C28.1795 11 29.6622 12.3156 29.9338 14.0367Z" fill="#07AB56"/>
<rect opacity="0.5" width="0.499359" height="7.23136" rx="0.249679" transform="matrix(0.864866 0.502003 -0.497999 0.867177 11.6016 19.7734)" fill="white"/>
<path fill-rule="evenodd" clip-rule="evenodd" d="M12.3234 17.2692C12.4523 14.6155 14.6332 12.5037 17.3047 12.5037C19.2613 12.5037 20.9548 13.6364 21.7716 15.2852C22.0672 15.1546 22.394 15.0822 22.7376 15.0822C23.9875 15.0822 25.0147 16.0411 25.131 17.2671H25.3737C27.1735 17.2671 28.6325 18.7261 28.6325 20.5259C28.6325 22.3257 27.1735 23.7847 25.3737 23.7847H12.4424C10.6426 23.7847 9.18359 22.3257 9.18359 20.5259C9.18359 18.7659 10.5788 17.3318 12.3234 17.2692Z" fill="url(#paint0_linear_2829_86462)"/>
<path opacity="0.6" fill-rule="evenodd" clip-rule="evenodd" d="M15.4542 17.8965C15.5229 17.7769 15.6753 17.7361 15.7945 17.8053C15.9138 17.8745 15.9548 18.0276 15.8861 18.1471L12.1453 24.6612C12.0766 24.7807 11.9243 24.8216 11.805 24.7523C11.6857 24.6831 11.6447 24.53 11.7134 24.4105L15.4542 17.8965ZM10.9663 25.712C11.035 25.5924 11.1873 25.5516 11.3066 25.6208C11.4259 25.69 11.4669 25.8431 11.3982 25.9627L10.7742 27.0493C10.7055 27.1689 10.5532 27.2097 10.4339 27.1405C10.3146 27.0713 10.2736 26.9182 10.3423 26.7986L10.9663 25.712ZM10.026 28.3504C10.0947 28.2308 10.0537 28.0778 9.93442 28.0086C9.81516 27.9393 9.66281 27.9802 9.59414 28.0997L8.9861 29.1585C8.91743 29.2781 8.95844 29.4312 9.0777 29.5004C9.19696 29.5696 9.34931 29.5288 9.41798 29.4092L10.026 28.3504Z" fill="white"/>
<path opacity="0.8" fill-rule="evenodd" clip-rule="evenodd" d="M18.2704 19.9894C18.3391 19.8698 18.2981 19.7168 18.1788 19.6476C18.0596 19.5783 17.9072 19.6192 17.8386 19.7387L16.4107 22.2251C16.342 22.3447 16.383 22.4977 16.5023 22.567C16.6215 22.6362 16.7739 22.5954 16.8426 22.4758L18.2704 19.9894ZM16.0952 23.7775C16.1638 23.6579 16.1228 23.5048 16.0036 23.4356C15.8843 23.3664 15.732 23.4072 15.6633 23.5268L13.7925 26.7844C13.7239 26.9039 13.7649 27.057 13.8841 27.1262C14.0034 27.1954 14.1557 27.1546 14.2244 27.035L16.0952 23.7775Z" fill="white"/>
<path opacity="0.7" fill-rule="evenodd" clip-rule="evenodd" d="M20.3523 21.9946C20.421 21.875 20.5733 21.8342 20.6926 21.9035C20.8118 21.9727 20.8528 22.1257 20.7842 22.2453L20.5565 22.6418C20.4878 22.7613 20.3355 22.8022 20.2162 22.7329C20.097 22.6637 20.0559 22.5107 20.1246 22.3911L20.3523 21.9946ZM18.2374 25.6772C18.3061 25.5576 18.4584 25.5168 18.5777 25.586C18.6969 25.6552 18.7379 25.8083 18.6693 25.9279L16.7201 29.322C16.6514 29.4416 16.4991 29.4824 16.3798 29.4132C16.2606 29.344 16.2196 29.1909 16.2882 29.0713L18.2374 25.6772ZM19.9252 23.7426C19.9939 23.623 19.9529 23.47 19.8336 23.4007C19.7144 23.3315 19.562 23.3723 19.4933 23.4919L18.8385 24.6321C18.7699 24.7517 18.8109 24.9048 18.9301 24.974C19.0494 25.0432 19.2017 25.0024 19.2704 24.8828L19.9252 23.7426Z" fill="white"/>
<path opacity="0.7" fill-rule="evenodd" clip-rule="evenodd" d="M25.1753 20.2407C25.244 20.1212 25.203 19.9681 25.0837 19.8989C24.9645 19.8297 24.8121 19.8705 24.7434 19.9901L24.3927 20.6009C24.324 20.7205 24.365 20.8735 24.4843 20.9427C24.6035 21.012 24.7559 20.9711 24.8245 20.8516L25.1753 20.2407ZM24.0766 22.1525C24.1453 22.0329 24.1043 21.8799 23.985 21.8107C23.8658 21.7414 23.7134 21.7822 23.6448 21.9018L21.774 25.1594C21.7053 25.279 21.7464 25.432 21.8656 25.5013C21.9849 25.5705 22.1372 25.5297 22.2059 25.4101L24.0766 22.1525Z" fill="white"/>
<defs>
<linearGradient id="paint0_linear_2829_86462" x1="9.18359" y1="18.1442" x2="28.6325" y2="18.1442" gradientUnits="userSpaceOnUse">
<stop stop-color="#22F779"/>
<stop offset="1" stop-color="#75FFA5"/>
</linearGradient>
</defs>
</svg>
