<svg width="128" height="128" viewBox="0 0 128 128" fill="none" xmlns="http://www.w3.org/2000/svg">
<path d="M46.8715 66.6317C46.8715 65.773 47.5676 65.0769 48.4263 65.0769C49.285 65.0769 49.9812 65.773 49.9812 66.6317V72.2468L52.695 69.8345C53.3323 69.268 54.3147 69.3195 54.8893 69.9495C55.4639 70.5795 55.413 71.5495 54.7757 72.116L49.9812 76.3779V83.3407L56.4145 79.6739L57.6683 73.8505C57.847 73.0207 58.6727 72.491 59.5127 72.6672C60.3526 72.8435 60.8887 73.659 60.71 74.4888L60.0384 77.6083L64.5895 75.0143C65.3284 74.5931 66.2755 74.8469 66.7049 75.581C67.1342 76.3152 66.8833 77.2518 66.1444 77.6729L61.2238 80.4776L64.6425 81.5742C65.4597 81.8363 65.9071 82.7024 65.6417 83.5087C65.3764 84.3149 64.4988 84.756 63.6815 84.4939L57.5999 82.5431L51.6521 85.9332L58.0692 89.5908L63.7529 87.7676C64.5701 87.5055 65.4478 87.9466 65.7131 88.7528C65.9785 89.5591 65.5311 90.4252 64.7139 90.6873L61.693 91.6563L66.2129 94.2325C66.9518 94.6537 67.2027 95.5903 66.7733 96.3244C66.344 97.0586 65.3969 97.3123 64.658 96.8912L59.7063 94.0688L60.4648 97.592C60.6435 98.4218 60.1074 99.2373 59.2675 99.4136C58.4275 99.5899 57.6018 99.0601 57.4231 98.2303L56.0824 92.0033L49.9812 88.5257V95.9842L54.4648 99.9697C55.102 100.536 55.1529 101.506 54.5783 102.136C54.0037 102.766 53.0213 102.818 52.384 102.251L49.9812 100.115V105.274C49.9812 106.132 49.285 106.828 48.4263 106.828C47.5676 106.828 46.8715 106.132 46.8715 105.274V99.6942L44.1979 102.071C43.5606 102.637 42.5782 102.586 42.0036 101.956C41.429 101.326 41.4798 100.356 42.1171 99.7894L46.8715 95.5632V88.6581L40.3381 92.3819L39.0957 98.1527C38.917 98.9824 38.0913 99.5122 37.2513 99.336C36.4114 99.1597 35.8753 98.3442 36.054 97.5144L36.7143 94.4474L32.1947 97.0235C31.4558 97.4447 30.5087 97.1909 30.0794 96.4568C29.65 95.7226 29.9009 94.786 30.6398 94.3649L35.5917 91.5424L32.1215 90.4292C31.3043 90.1671 30.8569 89.301 31.1223 88.4947C31.3876 87.6885 32.2652 87.2474 33.0825 87.5095L39.2156 89.4769L45.4328 85.9332L38.8832 82.2001L33.1482 84.0397C32.3309 84.3018 31.4533 83.8607 31.188 83.0545C30.9226 82.2482 31.37 81.3821 32.1872 81.12L35.2593 80.1346L30.7083 77.5406C29.9694 77.1194 29.7185 76.1829 30.1478 75.4487C30.5772 74.7145 31.5242 74.4608 32.2631 74.8819L37.1836 77.6865L36.4362 74.2154C36.2576 73.3856 36.7937 72.5701 37.6336 72.3938C38.4736 72.2175 39.2993 72.7473 39.478 73.5771L40.8074 79.752L46.8715 83.2084V75.8853L42.4281 71.9355C41.7908 71.369 41.74 70.3991 42.3146 69.7691C42.8892 69.1391 43.8716 69.0876 44.5089 69.6541L46.8715 71.7542V66.6317Z" fill="#64D2FF"/>
<path d="M69.0954 92.9112C68.8252 92.6355 68.5123 92.3922 68.1592 92.1917L68.0136 92.109C68.9578 91.0292 69.3378 89.4955 68.8471 88.0102C68.5913 87.2359 68.1366 86.5899 67.5606 86.1046C68.1016 85.627 68.5284 85.0036 68.7732 84.2627C69.3012 82.6645 68.8211 81.0104 67.7149 79.9258L68.0882 79.7138C70.1381 78.5498 70.8366 75.9427 69.6432 73.9098C68.4649 71.9026 65.884 71.2111 63.8601 72.3604L63.6296 72.4912C63.1701 71.0858 61.9819 69.9707 60.4508 69.6506C59.6529 69.4838 58.8523 69.5519 58.1284 69.8116C57.9996 69.0324 57.6502 68.2796 57.0751 67.6514C55.9331 66.404 54.212 65.9889 52.6876 66.4468V66.0245C52.6876 63.6711 50.7798 61.7633 48.4264 61.7633C46.073 61.7633 44.1652 63.6711 44.1652 66.0245V66.1687C42.7368 65.8734 41.1933 66.3162 40.1412 67.4653C39.5832 68.0748 39.2377 68.8015 39.1 69.556C38.3575 69.2747 37.5304 69.1963 36.7062 69.3687C35.0771 69.7092 33.8362 70.9498 33.4482 72.4824L32.9927 72.2238C30.9687 71.0746 28.3879 71.766 27.2096 73.7732C26.0161 75.8062 26.7146 78.4133 28.7646 79.5773L28.917 79.6638C27.9526 80.7453 27.5603 82.2943 28.0558 83.7941C28.3191 84.591 28.793 85.252 29.3931 85.7418C28.7608 86.2366 28.2609 86.9171 27.9877 87.7439C27.4549 89.3568 27.9488 91.0267 29.0768 92.1106L28.6936 92.3282C28.6144 92.3732 28.5373 92.4203 28.4622 92.4694C16.8105 90.2595 8 80.0225 8 67.7278C8 53.8194 19.275 42.5444 33.1834 42.5444C36.1992 42.5444 39.0912 43.0745 41.7712 44.0466C47.059 31.1128 59.767 22 74.6035 22C94.1851 22 110.059 37.874 110.059 57.4556C110.059 58.3182 110.028 59.1737 109.968 60.0208C115.889 62.7474 120 68.7339 120 75.6805C120 85.1968 112.286 92.9112 102.769 92.9112H69.0954Z" fill="white"/>
</svg>
