<svg width="40" height="40" viewBox="0 0 40 40" fill="none" xmlns="http://www.w3.org/2000/svg">
<path opacity="0.8" fill-rule="evenodd" clip-rule="evenodd" d="M25.66 20.2498C25.3746 20.2498 25.1432 20.4812 25.1432 20.7666V22.0767L24.2603 21.1938C24.0584 20.9919 23.7312 20.9919 23.5293 21.1938C23.3275 21.3956 23.3275 21.7229 23.5293 21.9247L24.4388 22.8341H23.0754C22.79 22.8341 22.5586 23.0655 22.5586 23.351C22.5586 23.6364 22.79 23.8678 23.0754 23.8678H24.3609L23.5022 24.7265C23.3004 24.9283 23.3004 25.2555 23.5022 25.4574C23.7041 25.6592 24.0313 25.6592 24.2332 25.4574L25.1432 24.5474V25.7628C25.1432 26.0482 25.3746 26.2796 25.66 26.2796C25.9455 26.2796 26.1769 26.0482 26.1769 25.7628V24.5722L27.0622 25.4575C27.264 25.6594 27.5913 25.6594 27.7931 25.4575C27.9949 25.2557 27.9949 24.9284 27.7931 24.7266L26.9343 23.8678H28.0716C28.3571 23.8678 28.5885 23.6364 28.5885 23.351C28.5885 23.0655 28.3571 22.8341 28.0716 22.8341H26.8564L27.766 21.9245C27.9678 21.7227 27.9678 21.3955 27.766 21.1936C27.5642 20.9918 27.2369 20.9918 27.0351 21.1936L26.1769 22.0518V20.7666C26.1769 20.4812 25.9455 20.2498 25.66 20.2498Z" fill="white"/>
<path opacity="0.6" fill-rule="evenodd" clip-rule="evenodd" d="M20.1537 25.5C19.972 25.5 19.8246 25.6474 19.8246 25.8291V26.6636L19.2622 26.1012C19.1336 25.9727 18.9252 25.9727 18.7967 26.1012C18.6682 26.2298 18.6682 26.4382 18.7967 26.5667L19.3758 27.1458H18.5088C18.327 27.1458 18.1797 27.2931 18.1797 27.4749C18.1797 27.6567 18.327 27.804 18.5088 27.804H19.3275L18.7806 28.3509C18.6521 28.4795 18.6521 28.6879 18.7806 28.8164C18.9092 28.945 19.1176 28.945 19.2461 28.8164L19.8246 28.2379V29.0109C19.8246 29.1926 19.972 29.34 20.1537 29.34C20.3355 29.34 20.4829 29.1926 20.4829 29.0109V28.2529L21.0465 28.8165C21.1751 28.945 21.3835 28.945 21.512 28.8165C21.6405 28.688 21.6405 28.4796 21.512 28.351L20.965 27.804H21.6905C21.8723 27.804 22.0197 27.6567 22.0197 27.4749C22.0197 27.2931 21.8723 27.1458 21.6905 27.1458H20.9168L21.4959 26.5666C21.6245 26.4381 21.6245 26.2297 21.4959 26.1011C21.3674 25.9726 21.159 25.9726 21.0304 26.1011L20.4829 26.6487V25.8291C20.4829 25.6474 20.3355 25.5 20.1537 25.5Z" fill="white"/>
<path opacity="0.8" fill-rule="evenodd" clip-rule="evenodd" d="M14.8359 27.75C14.7294 27.75 14.643 27.8363 14.643 27.9429V28.4313L14.314 28.1023C14.2387 28.027 14.1166 28.027 14.0413 28.1023C13.966 28.1777 13.966 28.2998 14.0413 28.3751L14.3805 28.7142L13.8725 28.7142C13.766 28.7142 13.6797 28.8006 13.6797 28.9071C13.6797 29.0136 13.766 29.1 13.8725 29.1H14.3536L14.033 29.4205C13.9577 29.4958 13.9577 29.6179 14.033 29.6933C14.1083 29.7686 14.2304 29.7686 14.3058 29.6933L14.643 29.356V29.8071C14.643 29.9137 14.7294 30 14.8359 30C14.9424 30 15.0287 29.9137 15.0287 29.8071V29.3625L15.3596 29.6933C15.4349 29.7687 15.557 29.7687 15.6323 29.6933C15.7076 29.618 15.7076 29.4959 15.6323 29.4206L15.3117 29.1H15.7368C15.8433 29.1 15.9297 29.0136 15.9297 28.9071C15.9297 28.8006 15.8433 28.7142 15.7368 28.7142H15.2848L15.624 28.375C15.6993 28.2997 15.6993 28.1776 15.624 28.1023C15.5487 28.027 15.4266 28.027 15.3513 28.1023L15.0287 28.4248V27.9429C15.0287 27.8363 14.9424 27.75 14.8359 27.75Z" fill="white"/>
<path fill-rule="evenodd" clip-rule="evenodd" d="M12.2685 14.7671C12.2684 14.7647 12.2684 14.7624 12.2684 14.76C12.2684 11.5788 14.8473 9 18.0284 9C19.8908 9 21.5467 9.88384 22.5996 11.255C23.1136 11.0392 23.6781 10.9199 24.2705 10.9199C26.4961 10.9199 28.3286 12.6029 28.5648 14.7656C30.7181 14.8775 32.4297 16.6589 32.4297 18.84C32.4297 21.0934 30.603 22.92 28.3497 22.92H12.5097C10.2564 22.92 8.42969 21.0934 8.42969 18.84C8.42969 16.6677 10.1274 14.8919 12.2685 14.7671Z" fill="url(#paint0_linear_2829_77423)"/>
<path fill-rule="evenodd" clip-rule="evenodd" d="M16.2191 17.6399C15.8556 17.6399 15.5609 17.9346 15.5609 18.2982V19.9685L14.4345 18.8421C14.1774 18.5851 13.7606 18.5851 13.5036 18.8421C13.2465 19.0992 13.2465 19.516 13.5036 19.7731L14.6617 20.9312H12.9278C12.5643 20.9312 12.2695 21.2259 12.2695 21.5895C12.2695 21.9531 12.5643 22.2478 12.9278 22.2478H14.5656L13.4714 23.3419C13.2143 23.599 13.2143 24.0158 13.4714 24.2729C13.7285 24.53 14.1453 24.53 14.4024 24.2729L15.5609 23.1144V24.6616C15.5609 25.0252 15.8556 25.3199 16.2191 25.3199C16.5827 25.3199 16.8774 25.0252 16.8774 24.6616V23.147L18.0032 24.2727C18.2603 24.5298 18.6771 24.5298 18.9341 24.2727C19.1912 24.0156 19.1912 23.5988 18.9341 23.3418L17.8402 22.2478H19.2912C19.6548 22.2478 19.9495 21.9531 19.9495 21.5895C19.9495 21.2259 19.6548 20.9312 19.2912 20.9312H17.7441L18.902 19.7733C19.1591 19.5162 19.1591 19.0994 18.902 18.8423C18.6449 18.5852 18.2281 18.5852 17.971 18.8423L16.8774 19.9359V18.2982C16.8774 17.9346 16.5827 17.6399 16.2191 17.6399Z" fill="white"/>
<path opacity="0.8" fill-rule="evenodd" clip-rule="evenodd" d="M24.1721 15.7502C23.9946 15.7502 23.8507 15.8942 23.8507 16.0717V16.8873L23.3009 16.3375C23.1754 16.212 22.9719 16.212 22.8463 16.3375C22.7208 16.463 22.7208 16.6665 22.8463 16.7921L23.4115 17.3573H22.5656C22.388 17.3573 22.2441 17.5012 22.2441 17.6787C22.2441 17.8562 22.388 18.0001 22.5656 18.0001H23.3658L22.8315 18.5344C22.706 18.66 22.706 18.8635 22.8315 18.989C22.957 19.1145 23.1605 19.1145 23.2861 18.989L23.8507 18.4244V19.1788C23.8507 19.3563 23.9946 19.5002 24.1721 19.5002C24.3496 19.5002 24.4936 19.3563 24.4936 19.1788V18.4393L25.0434 18.9891C25.1689 19.1147 25.3725 19.1147 25.498 18.9891C25.6235 18.8636 25.6235 18.6601 25.498 18.5346L24.9635 18.0001H25.6727C25.8502 18.0001 25.9941 17.8562 25.9941 17.6787C25.9941 17.5012 25.8502 17.3573 25.6727 17.3573H24.9178L25.4831 16.7919C25.6087 16.6664 25.6087 16.4629 25.4831 16.3374C25.3576 16.2118 25.1541 16.2118 25.0286 16.3374L24.4936 16.8724V16.0717C24.4936 15.8942 24.3496 15.7502 24.1721 15.7502Z" fill="white"/>
<defs>
<linearGradient id="paint0_linear_2829_77423" x1="8.42969" y1="15.96" x2="32.4297" y2="15.96" gradientUnits="userSpaceOnUse">
<stop stop-color="#22F779"/>
<stop offset="1" stop-color="#75FFA5"/>
</linearGradient>
</defs>
</svg>
