<svg width="40" height="40" viewBox="0 0 40 40" fill="none" xmlns="http://www.w3.org/2000/svg">
<circle cx="20" cy="20" r="7" fill="url(#paint0_linear_2829_85852)"/>
<path d="M20 10L20 8" stroke="url(#paint1_linear_2829_85852)" stroke-linecap="round"/>
<path d="M20 32L20 30" stroke="url(#paint2_linear_2829_85852)" stroke-linecap="round"/>
<path d="M10 20L8 20" stroke="url(#paint3_linear_2829_85852)" stroke-linecap="round"/>
<path d="M32 20L30 20" stroke="url(#paint4_linear_2829_85852)" stroke-linecap="round"/>
<path d="M12.9298 27.0711L11.5156 28.4854" stroke="url(#paint5_linear_2829_85852)" stroke-linecap="round"/>
<path d="M28.4865 11.5147L27.0723 12.929" stroke="url(#paint6_linear_2829_85852)" stroke-linecap="round"/>
<path d="M12.9279 12.9289L11.5137 11.5146" stroke="url(#paint7_linear_2829_85852)" stroke-linecap="round"/>
<path d="M28.4845 28.4853L27.0703 27.071" stroke="url(#paint8_linear_2829_85852)" stroke-linecap="round"/>
<defs>
<linearGradient id="paint0_linear_2829_85852" x1="10.2686" y1="14.5608" x2="23.5355" y2="25.2264" gradientUnits="userSpaceOnUse">
<stop stop-color="#FFEA9F"/>
<stop offset="1" stop-color="#FFB547"/>
</linearGradient>
<linearGradient id="paint1_linear_2829_85852" x1="19.8049" y1="8.22297" x2="21.148" y2="8.76284" gradientUnits="userSpaceOnUse">
<stop stop-color="#FFEA9F"/>
<stop offset="1" stop-color="#FFB547"/>
</linearGradient>
<linearGradient id="paint2_linear_2829_85852" x1="19.8049" y1="30.223" x2="21.148" y2="30.7628" gradientUnits="userSpaceOnUse">
<stop stop-color="#FFEA9F"/>
<stop offset="1" stop-color="#FFB547"/>
</linearGradient>
<linearGradient id="paint3_linear_2829_85852" x1="8.22297" y1="20.1951" x2="8.76284" y2="18.852" gradientUnits="userSpaceOnUse">
<stop stop-color="#FFEA9F"/>
<stop offset="1" stop-color="#FFB547"/>
</linearGradient>
<linearGradient id="paint4_linear_2829_85852" x1="30.223" y1="20.1951" x2="30.7628" y2="18.852" gradientUnits="userSpaceOnUse">
<stop stop-color="#FFEA9F"/>
<stop offset="1" stop-color="#FFB547"/>
</linearGradient>
<linearGradient id="paint5_linear_2829_85852" x1="11.8112" y1="28.4656" x2="11.2433" y2="27.1342" gradientUnits="userSpaceOnUse">
<stop stop-color="#FFEA9F"/>
<stop offset="1" stop-color="#FFB547"/>
</linearGradient>
<linearGradient id="paint6_linear_2829_85852" x1="27.3679" y1="12.9092" x2="26.7999" y2="11.5778" gradientUnits="userSpaceOnUse">
<stop stop-color="#FFEA9F"/>
<stop offset="1" stop-color="#FFB547"/>
</linearGradient>
<linearGradient id="paint7_linear_2829_85852" x1="11.5334" y1="11.8103" x2="12.8648" y2="11.2423" gradientUnits="userSpaceOnUse">
<stop stop-color="#FFEA9F"/>
<stop offset="1" stop-color="#FFB547"/>
</linearGradient>
<linearGradient id="paint8_linear_2829_85852" x1="27.09" y1="27.3667" x2="28.4215" y2="26.7987" gradientUnits="userSpaceOnUse">
<stop stop-color="#FFEA9F"/>
<stop offset="1" stop-color="#FFB547"/>
</linearGradient>
</defs>
</svg>
