<svg width="36" height="41" viewBox="0 0 36 41" fill="none" xmlns="http://www.w3.org/2000/svg">
<path fill-rule="evenodd" clip-rule="evenodd" d="M21.1361 35.7277C29.5822 34.2438 36 26.8714 36 18C36 8.05887 27.9411 0 18 0C8.05887 0 0 8.05887 0 18C0 27.2451 6.96994 34.8623 15.9418 35.8836L18.5 41L21.1361 35.7277Z" fill="url(#paint0_linear_1614_45907)"/>
<path d="M13.8147 22.3455C13.2233 21.7653 12.7998 20.3772 12.7526 19.6362C12.6582 20.2383 12.3136 21.623 11.6906 22.3455C11.0675 23.068 9.63724 23.2949 9 23.318C9.54283 23.318 10.8551 23.5403 11.7614 24.4295C12.6677 25.3187 12.7998 26.5136 12.7526 26.9999C12.8234 26.4673 13.135 25.2076 13.8147 24.4295C14.4944 23.6515 15.7972 23.3644 16.3636 23.318C15.8208 23.156 14.4519 22.9707 13.8147 22.3455Z" fill="#333333"/>
<path d="M21.6194 14.7196C20.371 13.4947 19.4769 10.5643 19.3773 9C19.178 10.271 18.4505 13.1943 17.1351 14.7196C15.8198 16.2448 12.8004 16.7238 11.4551 16.7727C12.6011 16.7727 15.3713 17.242 17.2846 19.1192C19.1979 20.9964 19.4769 23.5189 19.3773 24.5455C19.5268 23.4211 20.1844 20.7617 21.6194 19.1192C23.0544 17.4767 25.8047 16.8705 27.0005 16.7727C25.8546 16.4305 22.9647 16.0395 21.6194 14.7196Z" fill="#333333"/>
<defs>
<linearGradient id="paint0_linear_1614_45907" x1="4.00568e-07" y1="-2.90325" x2="31.5613" y2="28.7989" gradientUnits="userSpaceOnUse">
<stop stop-color="#00DE59"/>
<stop offset="1" stop-color="#73F6A7"/>
</linearGradient>
</defs>
</svg>
