<svg width="36" height="41" viewBox="0 0 36 41" fill="none" xmlns="http://www.w3.org/2000/svg">
<path fill-rule="evenodd" clip-rule="evenodd" d="M20.5927 35.8147C29.3054 34.5578 36 27.0607 36 18C36 8.05887 27.9411 0 18 0C8.05887 0 0 8.05887 0 18C0 27.0607 6.69465 34.5578 15.4073 35.8147L18 41L20.5927 35.8147Z" fill="#F94F4F"/>
<path d="M17.0117 17.6836V18.8672H13.918V21.1406H18.0781V22.3594H8.31641V21.1406H12.4297V18.8672H9.46484V13.6641H16.9297V14.8594H10.9648V17.6836H17.0117ZM22.4933 15.2109C22.4933 16.3125 23.2667 17.4609 25.0011 17.918L24.3097 19.1016C23.1027 18.7734 22.253 18.0762 21.7784 17.1914C21.3038 18.1641 20.4484 18.9199 19.2003 19.2773L18.4855 18.1055C20.2198 17.6367 21.005 16.4062 21.005 15.2109H18.8605V14.0273H21.005V12.8789H22.5167V14.0273H24.6495V15.2109H22.4933ZM27.0284 12.9141V15.5391H28.4698V16.793H27.0284V19.4531H25.5284V12.9141H27.0284ZM27.0284 19.8867V23.5898H25.5284V21.082H19.8448V19.8867H27.0284Z" fill="#F2F2F2"/>
</svg>
