<svg width="40" height="56" viewBox="0 0 40 56" fill="none" xmlns="http://www.w3.org/2000/svg">
<path fill-rule="evenodd" clip-rule="evenodd" d="M22.5927 35.8147C31.3054 34.5578 38 27.0607 38 18C38 8.05887 29.9411 0 20 0C10.0589 0 2 8.05887 2 18C2 27.0607 8.69465 34.5578 17.4073 35.8147L20 41L22.5927 35.8147Z" fill="#242424"/>
<path d="M22.1643 15.7196C20.9159 14.4947 20.0219 11.5643 19.9222 10C19.7229 11.271 18.9955 14.1943 17.6801 15.7196C16.3647 17.2448 13.3453 17.7238 12 17.7727C13.146 17.7727 15.9163 18.242 17.8295 20.1192C19.7428 21.9964 20.0219 24.5189 19.9222 25.5455C20.0717 24.4211 20.7294 21.7617 22.1643 20.1192C23.5993 18.4767 26.3497 17.8705 27.5455 17.7727C26.3995 17.4305 23.5096 17.0395 22.1643 15.7196Z" fill="#22F779"/>
<circle cx="20" cy="49" r="3.5" fill="#22F779" stroke="#555555"/>
</svg>
