<svg width="182" height="152" viewBox="0 0 182 152" fill="none" xmlns="http://www.w3.org/2000/svg">
<path fill-rule="evenodd" clip-rule="evenodd" d="M97 46C101.418 46 105 49.5817 105 54V85.6001C105 90.0184 101.418 93.6001 97 93.6001H47.2869L47.1749 93.6982C46.7416 94.078 46.4931 94.6262 46.4931 95.2024V102.414C46.4931 103.383 45.2517 103.786 44.6831 103L37.2861 92.783C35.8041 90.7359 35.0062 88.2732 35.0062 85.746V82.6745C35.002 82.5443 34.9999 82.4138 34.9999 82.2829V54C34.9999 49.5817 38.5816 46 42.9999 46H97Z" fill="#6D6D6D"/>
<path fill-rule="evenodd" clip-rule="evenodd" d="M65 16C60.5817 16 57 19.5817 57 24V69.5995C57 74.0178 60.5817 77.5995 65 77.5995H131.687L132.033 77.9024C132.466 78.2822 132.715 78.8304 132.715 79.4066V89.5488C132.715 90.5506 134.024 90.9301 134.56 90.0834L144.628 74.1689C144.932 73.6886 145.2 73.1886 145.432 72.6728C146.827 70.2655 147.588 67.5049 147.588 64.6522V24C147.588 19.5817 144.006 16 139.588 16H65Z" fill="#959595"/>
<circle cx="85.25" cy="46.75" r="4" fill="#6D6D6D"/>
<circle cx="102.25" cy="46.75" r="4" fill="#6D6D6D"/>
<circle cx="119.25" cy="46.75" r="4" fill="#6D6D6D"/>
<path d="M10.9091 139.576C10.9091 141.449 11.579 143.35 13.37 144.293L12.3993 145.578C11.2782 145.004 10.5331 143.999 10.1024 142.775C9.66492 144.108 8.91981 145.223 7.79188 145.865L6.8075 144.553C8.57117 143.541 9.25477 141.504 9.26844 139.576V139.344H7.20399V137.922H9.26844V136.24H10.8954V137.922H12.9462V139.344H10.9091V139.576ZM17.8817 135.816V148.258H16.2138V142.023H15.161V147.684H13.5067V135.994H15.161V140.602H16.2138V135.816H17.8817ZM25.6988 136.678V138.072H21.4195V139.043H25.3296V140.396H21.4195V141.395C23.607 141.395 24.9947 141.367 26.5738 141.107L26.7515 142.475C24.9741 142.762 23.4019 142.803 20.7359 142.789H19.6695V136.678H25.6988ZM29.4038 135.83V143.363H27.6538V135.83H29.4038ZM25.1656 143.527C27.7906 143.527 29.4585 144.402 29.4722 145.893C29.4585 147.396 27.7906 148.258 25.1656 148.258C22.4995 148.258 20.8863 147.396 20.8863 145.893C20.8863 144.402 22.4995 143.527 25.1656 143.527ZM25.1656 144.881C23.4976 144.881 22.6226 145.223 22.6226 145.893C22.6226 146.576 23.4976 146.932 25.1656 146.932C26.8198 146.932 27.7222 146.576 27.7222 145.893C27.7222 145.223 26.8198 144.881 25.1656 144.881ZM44.7645 135.816V148.258H43.0828V142.037H41.9207V147.656H40.2801V136.021H41.9207V140.629H43.0828V135.816H44.7645ZM36.2879 137.197V143.691C37.2859 143.671 38.3797 143.582 39.5828 143.35L39.7606 144.854C38.0926 145.141 36.6707 145.223 35.3856 145.223H34.5379V137.197H36.2879ZM56.478 143.732V148.258H54.7416V145.1H47.933V143.732H56.478ZM56.478 135.816V143.172H54.7416V141.6H51.9526C51.3579 142.242 50.476 142.625 49.4643 142.625C47.5776 142.625 46.142 141.326 46.1557 139.521C46.142 137.758 47.5776 136.473 49.4643 136.486C50.476 136.479 51.3579 136.855 51.9526 137.484H54.7416V135.816H56.478ZM49.4643 137.949C48.4936 137.949 47.7963 138.551 47.81 139.521C47.7963 140.547 48.4936 141.135 49.4643 141.135C50.3803 141.135 51.0913 140.547 51.0913 139.521C51.0913 138.551 50.3803 137.949 49.4643 137.949ZM52.6772 140.205H54.7416V138.893H52.6909C52.725 139.091 52.7455 139.303 52.7455 139.521C52.7455 139.761 52.7182 139.986 52.6772 140.205ZM68.3692 135.816V148.285H66.6055V135.816H68.3692ZM61.6153 136.691C63.4884 136.691 64.8829 138.414 64.8829 141.121C64.8829 143.855 63.4884 145.564 61.6153 145.564C59.7013 145.564 58.3067 143.855 58.3204 141.121C58.3067 138.414 59.7013 136.691 61.6153 136.691ZM61.6153 138.264C60.6446 138.264 60.002 139.275 60.002 141.121C60.002 142.98 60.6446 143.979 61.6153 143.979C62.5587 143.979 63.2013 142.98 63.2013 141.121C63.2013 139.275 62.5587 138.264 61.6153 138.264ZM83.3197 136.336V137.73H79.888C80.1 138.776 81.3851 139.822 83.8392 140.082L83.1966 141.463C80.8656 141.189 79.307 140.219 78.6576 138.92C78.0013 140.212 76.4564 141.189 74.1322 141.463L73.5033 140.082C75.9574 139.822 77.2289 138.763 77.4408 137.73H74.0365V136.336H83.3197ZM83.0599 146.645V148.039H74.3646V144.457H76.1146V146.645H83.0599ZM84.3451 142.297V143.705H72.9974V142.297H77.7962V140.574H79.5189V142.297H84.3451ZM95.8125 135.816V148.258H94.1445V142.023H93.0918V147.684H91.4375V144.115L90.4531 145.428C89.2979 144.819 88.5527 143.787 88.1152 142.502C87.6982 143.979 86.96 145.175 85.7773 145.879L84.6973 144.539C86.584 143.473 87.2266 141.271 87.2266 138.893V138.496H85.1211V137.102H90.8223V138.496H88.9219V138.893C88.9219 141.06 89.5645 143.124 91.4375 144.088V135.994H93.0918V140.602H94.1445V135.816H95.8125ZM106.733 135.816V140.684H108.565V142.119H106.733V148.258H105.01V135.816H106.733ZM104.163 137.676V139.07H96.8483V137.676H99.6647V136.008H101.415V137.676H104.163ZM100.54 139.768C102.358 139.768 103.712 140.998 103.712 142.734C103.712 144.471 102.358 145.701 100.54 145.701C98.7077 145.701 97.3541 144.471 97.3541 142.734C97.3541 140.998 98.7077 139.768 100.54 139.768ZM100.54 141.176C99.6647 141.189 99.0221 141.777 99.0221 142.734C99.0221 143.705 99.6647 144.279 100.54 144.266C101.415 144.279 102.044 143.705 102.044 142.734C102.044 141.777 101.415 141.189 100.54 141.176ZM113.702 139.207C113.702 141.217 114.728 143.363 116.82 144.238L115.876 145.605C114.407 144.983 113.395 143.746 112.841 142.229C112.274 143.876 111.241 145.243 109.779 145.92L108.781 144.539C110.845 143.623 111.911 141.312 111.911 139.207V138.441H109.273V137.02H116.3V138.441H113.702V139.207ZM119.294 135.816V148.258H117.531V135.816H119.294ZM127.354 136.418C129.268 136.418 130.69 137.635 130.69 139.316C130.69 141.025 129.268 142.229 127.354 142.229C125.454 142.229 124.004 141.025 124.004 139.316C124.004 137.635 125.454 136.418 127.354 136.418ZM127.354 137.854C126.411 137.84 125.7 138.414 125.713 139.316C125.7 140.232 126.411 140.807 127.354 140.807C128.297 140.807 128.995 140.232 128.995 139.316C128.995 138.414 128.297 137.84 127.354 137.854ZM133.794 135.816V138.4H135.475V139.836H133.794V141.955H132.044V135.816H133.794ZM126.739 143.158V146.508C127.429 146.467 128.079 146.364 128.721 146.152L128.967 147.506C127.915 147.889 126.917 147.93 125.727 147.93H125.044V143.158H126.739ZM134.805 143.172V144.457H128.544V143.172H130.84V142.297H132.536V143.172H134.805ZM131.661 144.744C133.083 144.744 134.081 145.441 134.081 146.508C134.081 147.588 133.083 148.258 131.661 148.258C130.225 148.258 129.254 147.588 129.268 146.508C129.254 145.441 130.225 144.744 131.661 144.744ZM131.661 145.947C131.169 145.961 130.799 146.152 130.813 146.508C130.799 146.877 131.169 147.068 131.661 147.068C132.153 147.068 132.522 146.877 132.522 146.508C132.522 146.152 132.153 145.961 131.661 145.947ZM138.931 143.281V144.334H144.058V143.281H145.794V148.121H137.208V143.281H138.931ZM138.931 146.754H144.058V145.66H138.931V146.754ZM147.23 141.244V142.652H135.882V141.244H147.23ZM142.458 136.363C142.458 137.607 143.894 139.016 146.669 139.33L146.054 140.697C143.907 140.424 142.356 139.535 141.556 138.332C140.756 139.535 139.197 140.424 137.071 140.697L136.443 139.33C139.218 139.002 140.654 137.635 140.667 136.363V135.939H142.458V136.363ZM158.301 135.816V148.258H156.564V135.816H158.301ZM150.234 137.006V143.691C151.916 143.671 153.721 143.514 155.553 143.158L155.771 144.594C153.584 145.045 151.533 145.195 149.605 145.182H148.512V137.006H150.234ZM169.618 135.816V140.438H171.45V141.859H169.618V148.285H167.868V135.816H169.618ZM166.131 136.965V138.373H162.03V143.828C163.834 143.808 165.325 143.726 166.979 143.432L167.17 144.895C165.243 145.223 163.547 145.277 161.346 145.264H160.293V136.965H166.131ZM173.374 147.123C172.732 147.123 172.212 146.604 172.226 145.975C172.212 145.346 172.732 144.84 173.374 144.84C173.976 144.84 174.509 145.346 174.509 145.975C174.509 146.604 173.976 147.123 173.374 147.123Z" fill="#959595"/>
</svg>
