<svg width="36" height="41" viewBox="0 0 36 41" fill="none" xmlns="http://www.w3.org/2000/svg">
<path fill-rule="evenodd" clip-rule="evenodd" d="M20.5927 35.8147C29.3054 34.5578 36 27.0607 36 18C36 8.05887 27.9411 0 18 0C8.05887 0 0 8.05887 0 18C0 27.0607 6.69465 34.5578 15.4073 35.8147L18 41L20.5927 35.8147Z" fill="#555555"/>
<path d="M18.0195 17.4609V18.5508H13.918V19.2188H16.8594V21.8203H10.918V22.4062H17.1406V23.5078H9.45312V20.8125H15.3828V20.2852H9.44141V19.2188H12.4297V18.5508H8.33984V17.4609H18.0195ZM8.71484 16.0664C10.8477 15.9727 11.9316 15.4629 12.2422 14.8477H9.25391V13.7461H12.4297V12.9023H13.9062V13.7461H17.1055V14.8477H14.0879C14.3926 15.4629 15.4824 15.9727 17.6328 16.0664L17.1992 17.168C15.2188 17.0684 13.8418 16.5703 13.168 15.7676C12.4941 16.5703 11.123 17.0684 9.125 17.168L8.71484 16.0664ZM20.3722 13.3945V14.6602H22.5519V13.3945H24.0519V18.0469H18.8839V13.3945H20.3722ZM19.9503 19.8984V18.7383H27.0284V21.6328H21.4386V22.3242H27.3331V23.5078H19.9738V20.5664H25.5402V19.8984H19.9503ZM20.3722 16.875H22.5519V15.7852H20.3722V16.875ZM25.5284 18.3398V12.9141H27.0284V14.9883H28.4698V16.1953H27.0284V18.3398H25.5284Z" fill="#F2F2F2"/>
</svg>
